<?xml version="1.0" standalone="no"?>
<!DOCTYPE svg PUBLIC "-//W3C//DTD SVG 20010904//EN"
 "http://www.w3.org/TR/2001/REC-SVG-20010904/DTD/svg10.dtd">
<svg version="1.0" xmlns="http://www.w3.org/2000/svg"
 width="365.000000pt" height="365.000000pt" viewBox="0 0 365.000000 365.000000"
 preserveAspectRatio="xMidYMid meet">
<metadata>
Created by potrace 1.14, written by Peter Selinger 2001-2017
</metadata>
<g transform="translate(0.000000,365.000000) scale(0.100000,-0.100000)"
fill="#000000" stroke="none">
<path d="M2686 3265 c-6 -16 -9 -17 -16 -5 -9 13 -10 13 -10 0 0 -13 -1 -13
-10 0 -7 11 -10 11 -10 2 0 -7 -4 -11 -10 -7 -5 3 -25 -1 -45 -9 -20 -9 -33
-11 -29 -5 6 10 -32 -6 -80 -32 -14 -8 -16 -8 -10 2 4 7 -6 3 -23 -9 -17 -12
-34 -22 -38 -22 -8 0 -65 -56 -65 -65 0 -3 -9 -15 -20 -27 -10 -12 -17 -25
-14 -30 3 -4 -2 -11 -10 -14 -9 -3 -14 -10 -11 -14 3 -5 1 -11 -5 -15 -6 -4
-8 -11 -5 -16 4 -5 2 -9 -3 -9 -10 0 -23 -33 -25 -60 -1 -8 -5 -18 -10 -21 -7
-5 -13 -23 -16 -50 -1 -4 -9 -6 -18 -5 -20 1 -27 -41 -11 -61 7 -9 7 -13 0
-13 -6 0 -11 -9 -11 -20 -1 -11 -1 -29 -2 -40 0 -11 -4 -20 -9 -20 -5 0 -7 -7
-4 -15 4 -8 1 -15 -6 -15 -10 0 -10 -3 0 -15 7 -8 9 -15 4 -15 -5 0 -11 -19
-12 -43 -6 -72 -8 -82 -16 -96 -5 -7 -5 -16 0 -20 13 -9 16 -34 3 -26 -7 5
-10 -2 -8 -21 2 -16 0 -35 -4 -42 -5 -6 -5 -12 0 -12 4 0 8 -13 8 -30 0 -16
-3 -30 -6 -30 -3 0 -4 -11 -1 -25 3 -17 -1 -27 -12 -31 -9 -3 -14 -10 -11 -14
3 -5 -3 -6 -13 -3 -11 2 -27 -3 -36 -13 -15 -14 -19 -15 -26 -3 -7 11 -10 11
-15 -3 -4 -10 -16 -15 -31 -13 -13 1 -24 -2 -24 -7 0 -6 -7 -8 -15 -4 -8 3
-15 1 -15 -5 0 -6 -6 -9 -14 -6 -8 3 -22 -3 -32 -14 -9 -10 -25 -19 -36 -19
-10 0 -18 -5 -18 -11 0 -13 -52 -8 -62 6 -4 5 -2 13 5 17 8 5 8 8 1 8 -7 0
-10 12 -8 30 2 16 -1 32 -6 35 -6 4 -8 11 -4 16 11 18 12 59 1 52 -6 -4 -8 0
-4 10 3 9 2 19 -4 23 -6 3 -8 12 -5 20 3 8 2 14 -2 14 -7 0 -11 16 -14 57 -1
7 -8 15 -16 18 -8 3 -12 12 -9 19 3 8 -1 20 -9 26 -8 7 -14 19 -14 26 0 8 -5
14 -11 14 -6 0 -9 7 -6 14 4 9 -2 17 -14 21 -10 4 -17 10 -15 14 3 4 -4 13
-14 21 -10 8 -17 17 -14 22 3 4 0 8 -5 8 -14 0 -51 37 -51 50 0 6 -5 10 -11
10 -5 0 -8 4 -5 9 5 8 -22 25 -33 21 -2 -1 -8 5 -13 14 -5 9 -15 16 -23 16 -7
0 -15 4 -17 9 -1 5 -10 11 -18 13 -8 2 -23 11 -32 21 -9 10 -19 18 -22 18 -21
-3 -26 0 -20 11 5 7 3 8 -5 3 -14 -8 -91 24 -91 38 0 5 -5 5 -10 2 -6 -4 -17
-1 -25 5 -8 6 -19 9 -25 5 -5 -3 -10 -1 -10 6 0 7 -3 9 -7 6 -3 -4 -12 -2 -20
4 -10 9 -13 8 -13 -1 0 -9 -3 -10 -13 -1 -8 6 -17 8 -20 4 -4 -3 -7 -1 -7 6 0
9 -5 9 -20 1 -14 -8 -20 -8 -20 0 0 6 -4 9 -9 6 -5 -4 -12 0 -14 6 -4 10 -6
10 -6 0 -1 -10 -6 -10 -21 -2 -15 8 -20 8 -20 -2 0 -9 -3 -9 -10 2 -8 12 -10
12 -10 1 0 -11 -3 -11 -15 -1 -8 7 -15 9 -15 4 0 -5 -36 -8 -80 -6 -59 3 -80
0 -80 -9 0 -7 -3 -9 -7 -6 -3 4 -13 1 -21 -6 -13 -10 -14 -9 -8 2 6 9 0 8 -17
-4 -15 -9 -30 -14 -36 -11 -5 3 -11 -1 -15 -9 -3 -8 -16 -15 -30 -15 -14 0
-28 -4 -31 -10 -3 -5 -18 -10 -33 -10 -16 0 -35 -10 -49 -27 -13 -14 -23 -23
-23 -18 0 4 -8 1 -17 -6 -14 -12 -16 -12 -8 0 5 9 -2 7 -17 -5 -14 -10 -24
-22 -21 -26 4 -7 -20 -12 -39 -9 -5 0 -8 -3 -8 -9 0 -5 -14 -17 -30 -25 -44
-23 -70 -47 -63 -58 3 -6 2 -7 -4 -4 -9 6 -53 -35 -53 -49 0 -3 -10 -15 -23
-27 -12 -12 -29 -34 -36 -49 -8 -16 -18 -28 -23 -28 -5 0 -6 -4 -3 -10 3 -5 1
-10 -4 -10 -6 0 -10 -3 -10 -7 3 -15 -23 -73 -30 -69 -4 3 -8 -5 -8 -16 -1
-12 -6 -24 -10 -27 -8 -6 -9 -13 -15 -68 -1 -13 -7 -23 -13 -23 -5 0 -3 -5 5
-10 9 -6 10 -10 3 -10 -11 0 -9 -42 3 -62 3 -4 1 -8 -5 -8 -6 0 -8 -6 -6 -12
3 -7 6 -41 8 -75 2 -34 10 -69 17 -78 10 -12 10 -15 -1 -15 -11 0 -11 -2 1
-10 12 -8 12 -10 1 -10 -10 0 -11 -3 -2 -13 6 -8 8 -17 4 -20 -3 -4 0 -7 8 -7
11 0 11 -2 -1 -10 -8 -5 -10 -10 -4 -10 6 0 11 -7 12 -15 1 -8 3 -22 4 -30 1
-8 5 -15 10 -15 4 0 8 -5 8 -11 0 -5 -6 -7 -12 -3 -7 4 -2 -5 12 -21 14 -16
18 -24 10 -20 -11 6 -10 3 3 -12 9 -11 15 -22 12 -25 -3 -3 1 -11 10 -18 8 -7
15 -19 15 -27 0 -7 7 -16 15 -19 8 -4 15 -11 15 -18 0 -13 32 -55 75 -100 16
-17 30 -35 30 -41 1 -5 7 -9 14 -7 7 1 10 -1 7 -6 -7 -12 47 -69 62 -65 6 3
12 -2 12 -11 0 -9 7 -16 15 -16 8 0 15 -4 15 -10 0 -5 6 -7 14 -4 7 3 22 -6
32 -19 11 -13 25 -22 32 -19 6 2 12 -2 12 -9 0 -7 3 -10 6 -6 4 3 13 -1 22 -9
8 -9 23 -13 34 -11 10 3 16 2 14 -2 -2 -3 7 -11 20 -18 14 -6 21 -7 18 -1 -4
6 5 2 20 -7 18 -12 26 -14 26 -5 0 9 3 10 13 1 8 -6 17 -8 20 -4 4 3 7 1 7 -5
0 -7 9 -12 20 -12 11 0 20 -5 20 -11 0 -8 4 -8 14 0 10 9 16 9 21 1 5 -8 11
-8 21 1 11 9 14 9 14 0 0 -8 5 -9 19 -1 14 7 22 7 26 0 4 -6 16 -8 27 -4 16 5
19 3 13 -7 -5 -8 1 -6 13 4 11 11 25 16 31 13 5 -3 12 0 14 6 4 10 6 10 6 0 1
-8 6 -10 14 -5 11 7 30 10 80 16 9 0 17 5 17 10 0 4 4 6 9 2 5 -3 12 -1 16 5
4 6 11 8 16 5 5 -4 9 -1 9 5 0 7 7 10 15 6 8 -3 15 -1 15 5 0 6 7 9 15 5 8 -3
15 -1 15 5 0 6 7 8 15 5 9 -3 18 1 21 9 4 8 17 15 30 15 13 0 24 5 24 11 0 5
4 8 9 4 5 -3 12 -1 16 5 4 6 11 7 17 4 6 -4 8 -2 5 3 -4 6 1 17 10 24 14 12
16 12 8 -1 -5 -9 0 -8 13 4 12 11 22 14 22 8 0 -7 6 -12 14 -12 16 0 31 -34
21 -50 -3 -5 -1 -10 4 -10 7 0 10 -16 8 -39 -2 -22 1 -37 6 -34 4 3 7 -1 6 -8
-1 -8 0 -21 4 -29 10 -26 20 -75 18 -84 -1 -5 4 -13 11 -17 10 -7 10 -9 0 -9
-10 0 -10 -5 -2 -20 6 -11 16 -17 22 -14 6 4 8 3 5 -3 -9 -14 15 -74 28 -70 5
2 16 -3 23 -12 8 -10 11 -10 6 -2 -4 9 -3 12 3 8 6 -4 10 -25 10 -48 0 -22 4
-44 9 -47 6 -4 17 -22 25 -39 8 -18 17 -33 21 -33 5 0 8 -6 8 -14 0 -7 15 -28
32 -47 18 -19 32 -37 30 -41 -1 -5 2 -8 8 -8 5 0 10 -6 10 -14 0 -8 7 -17 16
-20 9 -4 14 -9 10 -13 -3 -4 10 -21 30 -40 20 -18 33 -33 30 -33 -4 0 5 -11
19 -25 14 -14 25 -30 25 -36 0 -6 4 -8 9 -5 5 3 17 -6 27 -19 10 -14 24 -25
31 -25 7 0 13 -5 13 -11 0 -5 4 -8 9 -5 5 3 14 -1 21 -10 7 -8 19 -13 26 -10
7 3 15 -3 19 -12 5 -14 7 -14 15 -2 7 10 10 11 10 3 0 -7 9 -13 20 -13 11 0
20 -5 20 -10 0 -7 6 -7 19 0 25 13 34 13 26 0 -4 -6 9 -10 32 -11 44 -1 73 -5
80 -13 3 -3 14 -1 24 4 12 7 20 7 24 0 7 -11 115 -10 115 0 0 3 12 7 28 8 15
1 38 5 52 8 14 3 31 6 38 6 6 1 12 5 12 9 0 4 17 10 37 14 21 4 40 11 43 16 3
5 16 10 28 12 12 2 29 12 37 23 11 14 14 15 15 4 0 -12 2 -12 9 -2 4 8 11 13
15 13 23 -3 36 0 31 9 -3 6 1 7 9 4 10 -4 16 -1 16 7 0 7 3 10 6 6 4 -3 19 0
34 8 15 8 30 11 34 8 3 -4 6 -1 6 6 0 8 6 11 17 7 10 -4 14 -4 10 0 -10 10 12
34 27 28 7 -3 19 2 26 10 7 9 15 14 19 11 4 -2 22 9 39 24 17 16 46 39 64 52
48 33 88 76 88 94 0 9 3 14 8 12 8 -6 26 13 30 32 2 7 13 22 25 33 12 11 16
16 9 13 -11 -6 -11 -3 -1 13 7 12 17 19 21 16 4 -3 5 2 2 10 -4 9 0 18 9 22 9
3 13 12 10 20 -3 8 0 21 7 29 6 8 9 19 5 25 -3 5 -1 10 6 10 7 0 9 3 6 6 -3 4
-2 15 4 25 7 14 6 19 -3 19 -9 0 -9 3 2 10 13 8 13 10 0 10 -11 0 -11 3 -2 12
7 7 12 27 12 45 0 18 4 33 8 33 5 0 9 7 9 15 0 8 -3 15 -6 15 -3 0 -6 11 -6
25 0 14 2 25 5 25 3 0 5 11 5 25 0 14 -4 25 -8 25 -4 0 -3 9 3 20 8 15 8 20
-2 20 -9 0 -9 3 2 10 12 8 12 10 1 10 -10 0 -11 3 -2 13 8 10 7 17 -1 25 -7 7
-9 12 -5 12 3 0 2 11 -3 25 -7 18 -6 25 2 25 7 0 3 7 -8 16 -10 8 -13 12 -5 8
11 -5 13 -3 8 10 -4 10 -7 22 -7 27 0 6 -4 8 -8 5 -4 -2 -9 4 -9 15 -1 12 2
17 10 12 7 -3 5 2 -4 13 -26 32 -34 48 -18 39 11 -7 12 -6 3 6 -5 8 -10 21 -9
29 0 8 -4 18 -10 22 -6 5 -6 11 2 19 6 6 9 18 6 27 -4 10 -2 13 5 8 7 -4 12
-1 12 8 0 9 6 16 14 16 8 0 22 7 30 16 9 8 16 13 16 9 0 -3 11 2 25 11 14 9
23 20 20 24 -3 4 2 13 10 20 8 7 13 16 10 20 -3 4 2 11 11 14 8 3 12 10 9 16
-3 5 -2 10 4 10 5 0 8 8 6 18 -1 9 2 22 7 29 5 7 7 17 3 23 -3 5 -2 10 4 10 5
0 12 13 16 30 4 17 11 30 17 30 6 0 6 6 -2 15 -7 8 -8 15 -3 15 6 0 10 10 9
23 -1 12 3 25 8 29 5 4 11 42 13 85 4 100 5 103 14 103 5 0 4 12 -1 26 -7 18
-7 23 1 18 8 -5 8 -1 0 13 -5 11 -6 24 -2 29 5 5 12 29 15 54 3 25 7 51 8 58
1 6 5 12 10 12 5 0 6 5 3 11 -9 14 -12 89 -4 89 10 0 5 34 -6 42 -6 5 -4 8 5
8 11 0 12 2 3 8 -10 6 -9 14 2 35 7 15 10 27 6 27 -9 0 -8 31 3 48 4 7 2 12
-6 12 -8 0 -9 3 -3 8 16 11 36 52 26 52 -6 0 -6 12 -1 30 5 17 5 30 0 30 -10
0 -8 19 3 38 5 6 4 12 -1 12 -6 0 -12 10 -16 23 -3 12 -17 34 -31 49 -14 15
-25 32 -25 38 0 6 -5 8 -11 5 -6 -4 -9 0 -7 8 2 9 0 16 -5 16 -4 1 -32 14 -62
30 -31 16 -52 25 -49 19 4 -6 -6 -4 -22 5 -35 20 -104 38 -116 31 -4 -3 -8 1
-8 8 0 9 -3 9 -10 -2 -6 -10 -10 -11 -10 -2 0 6 -5 12 -11 12 -5 0 -7 -6 -3
-12 5 -9 2 -9 -9 1 -9 7 -17 10 -17 6 0 -4 -8 -1 -17 6 -14 12 -15 12 -9 1 7
-12 4 -12 -14 -2 -12 6 -24 9 -27 6 -4 -3 -12 -1 -20 5 -7 7 -13 7 -13 2 0 -6
-17 -7 -42 -3 -24 3 -55 5 -70 5 -16 -1 -28 3 -28 9 0 6 -5 4 -10 -4 -6 -9
-10 -10 -10 -3 0 12 -30 10 -50 -2 -6 -3 -10 -2 -10 4 0 10 -25 9 -36 -2 -4
-3 -15 -2 -25 4 -11 5 -19 6 -19 1 0 -4 -9 -8 -20 -8 -11 0 -20 4 -20 9 0 5
-6 4 -14 -2 -11 -9 -15 -9 -18 1 -3 7 -7 5 -12 -7z"/>
</g>
</svg>
